<svg width="148" height="53" viewBox="0 0 148 53" fill="none" xmlns="http://www.w3.org/2000/svg">
<path d="M11.8711 13.222C11.8711 12.1015 12.7832 11.2051 13.9233 11.2051C15.0634 11.2051 15.9755 12.1015 15.9755 13.222C15.9755 14.3425 15.0634 15.2389 13.9233 15.2389C12.7832 15.2389 11.8711 14.3425 11.8711 13.222Z" fill="#1459A4"/>
<path d="M5.94141 11.5411C5.94141 10.6447 6.73949 9.86035 7.65158 9.86035C8.56368 9.86035 9.36176 10.6447 9.36176 11.5411C9.36176 12.4375 8.56368 13.2219 7.65158 13.2219C6.73949 13.2219 5.94141 12.4375 5.94141 11.5411Z" fill="#1459A4"/>
<path d="M0.925781 9.86023C0.925781 9.18793 1.49583 8.51562 2.1799 8.51562C2.86397 8.51562 3.54804 9.07588 3.54804 9.86023C3.54804 10.5325 2.97799 11.2048 2.1799 11.2048C1.49583 11.2048 0.925781 10.6446 0.925781 9.86023Z" fill="#1459A4"/>
<path d="M30.5693 13.222C30.5693 12.1015 29.6572 11.2051 28.5171 11.2051C27.3769 11.2051 26.4648 12.1015 26.4648 13.222C26.4648 14.3425 27.3769 15.2389 28.5171 15.2389C29.6572 15.2389 30.5693 14.3425 30.5693 13.222Z" fill="#1459A4"/>
<path d="M36.3852 11.5411C36.3852 10.6447 35.5871 9.86035 34.675 9.86035C33.7629 9.86035 32.9648 10.6447 32.9648 11.5411C32.9648 12.4375 33.7629 13.2219 34.675 13.2219C35.7011 13.2219 36.3852 12.4375 36.3852 11.5411Z" fill="#1459A4"/>
<path d="M41.5136 9.86023C41.5136 9.18793 40.9436 8.51562 40.1455 8.51562C39.4614 8.51562 38.7773 9.07588 38.7773 9.86023C38.7773 10.5325 39.3474 11.2048 40.1455 11.2048C40.8296 11.2048 41.5136 10.6446 41.5136 9.86023Z" fill="#1459A4"/>
<path d="M11.8711 19.8328C11.8711 18.7123 12.7832 17.8159 13.9233 17.8159C15.0634 17.8159 15.9755 18.7123 15.9755 19.8328C15.9755 20.9533 15.0634 21.8497 13.9233 21.8497C12.7832 21.8497 11.8711 20.9533 11.8711 19.8328Z" fill="#1459A4"/>
<path d="M5.94141 19.8331C5.94141 18.9367 6.73949 18.1523 7.65158 18.1523C8.56368 18.1523 9.36176 18.9367 9.36176 19.8331C9.36176 20.7295 8.56368 21.5139 7.65158 21.5139C6.73949 21.5139 5.94141 20.7295 5.94141 19.8331Z" fill="#1459A4"/>
<path d="M0.925781 19.8329C0.925781 19.0485 1.49584 18.4883 2.29392 18.4883C3.092 18.4883 3.66206 19.0485 3.66206 19.8329C3.66206 20.6172 3.092 21.1775 2.29392 21.1775C1.49584 21.1775 0.925781 20.6172 0.925781 19.8329Z" fill="#1459A4"/>
<path d="M30.5693 19.8328C30.5693 18.7123 29.6572 17.8159 28.5171 17.8159C27.3769 17.8159 26.4648 18.7123 26.4648 19.8328C26.4648 20.9533 27.3769 21.8497 28.5171 21.8497C29.6572 21.8497 30.5693 20.9533 30.5693 19.8328Z" fill="#1459A4"/>
<path d="M36.3852 19.8331C36.3852 18.9367 35.5871 18.1523 34.675 18.1523C33.7629 18.1523 32.9648 18.9367 32.9648 19.8331C32.9648 20.7295 33.7629 21.5139 34.675 21.5139C35.7011 21.5139 36.3852 20.7295 36.3852 19.8331Z" fill="#1459A4"/>
<path d="M41.5136 19.8329C41.5136 19.0485 40.9436 18.4883 40.1455 18.4883C39.3474 18.4883 38.7773 19.0485 38.7773 19.8329C38.7773 20.6172 39.3474 21.1775 40.1455 21.1775C40.9436 21.1775 41.5136 20.6172 41.5136 19.8329Z" fill="#1459A4"/>
<path d="M12.7812 26.6678C12.7812 25.6594 13.5793 24.875 14.6054 24.875C15.6316 24.875 16.4296 25.6594 16.4296 26.6678C16.4296 27.6763 15.6316 28.4606 14.6054 28.4606C13.5793 28.4606 12.7812 27.6763 12.7812 26.6678Z" fill="#1459A4"/>
<path d="M7.53906 26.6681C7.53906 25.8837 8.22314 25.2114 9.02122 25.2114C9.8193 25.2114 10.5034 25.8837 10.5034 26.6681C10.5034 27.4524 9.8193 28.1247 9.02122 28.1247C8.22314 28.1247 7.53906 27.4524 7.53906 26.6681Z" fill="#1459A4"/>
<path d="M2.97656 26.6681C2.97656 25.9958 3.54663 25.4355 4.2307 25.4355C4.91477 25.4355 5.48484 25.9958 5.48484 26.6681C5.48484 27.3404 4.91477 27.9007 4.2307 27.9007C3.43262 27.9007 2.97656 27.3404 2.97656 26.6681Z" fill="#1459A4"/>
<path d="M29.6562 26.6678C29.6562 25.6594 28.8581 24.875 27.832 24.875C26.8059 24.875 26.0078 25.6594 26.0078 26.6678C26.0078 27.6763 26.8059 28.4606 27.832 28.4606C28.7441 28.4606 29.6562 27.6763 29.6562 26.6678Z" fill="#1459A4"/>
<path d="M34.9018 26.6681C34.9018 25.8837 34.2177 25.2114 33.4197 25.2114C32.6216 25.2114 31.9375 25.8837 31.9375 26.6681C31.9375 27.4524 32.6216 28.1247 33.4197 28.1247C34.2177 28.1247 34.9018 27.4524 34.9018 26.6681Z" fill="#1459A4"/>
<path d="M39.4614 26.6681C39.4614 25.9958 38.8913 25.4355 38.2073 25.4355C37.5232 25.4355 36.9531 25.9958 36.9531 26.6681C36.9531 27.3404 37.5232 27.9007 38.2073 27.9007C38.8913 27.9007 39.4614 27.3404 39.4614 26.6681Z" fill="#1459A4"/>
<path d="M13.582 32.8307C13.582 31.9343 14.3801 31.1499 15.2922 31.1499C16.2043 31.1499 17.0024 31.9343 17.0024 32.8307C17.0024 33.7271 16.2043 34.5114 15.2922 34.5114C14.3801 34.5114 13.582 33.7271 13.582 32.8307Z" fill="#1459A4"/>
<path d="M8.90625 32.8309C8.90625 32.0466 9.47631 31.4863 10.2744 31.4863C11.0725 31.4863 11.6425 32.0466 11.6425 32.8309C11.6425 33.6153 11.0725 34.1755 10.2744 34.1755C9.47631 34.1755 8.90625 33.6153 8.90625 32.8309Z" fill="#1459A4"/>
<path d="M4.80078 32.831C4.80078 32.2707 5.25683 31.7104 5.9409 31.7104C6.51096 31.7104 7.08102 32.1587 7.08102 32.831C7.08102 33.3912 6.62497 33.9515 5.9409 33.9515C5.25683 33.9515 4.80078 33.3912 4.80078 32.831Z" fill="#1459A4"/>
<path d="M28.7446 32.8307C28.7446 31.9343 27.9465 31.1499 27.0344 31.1499C26.1223 31.1499 25.3242 31.9343 25.3242 32.8307C25.3242 33.7271 26.1223 34.5114 27.0344 34.5114C28.0605 34.5114 28.7446 33.7271 28.7446 32.8307Z" fill="#1459A4"/>
<path d="M33.5332 32.8309C33.5332 32.0466 32.9631 31.4863 32.165 31.4863C31.3669 31.4863 30.7969 32.0466 30.7969 32.8309C30.7969 33.6153 31.3669 34.1755 32.165 34.1755C32.9631 34.1755 33.5332 33.6153 33.5332 32.8309Z" fill="#1459A4"/>
<path d="M37.6357 32.831C37.6357 32.2707 37.1797 31.7104 36.4956 31.7104C35.9255 31.7104 35.3555 32.1587 35.3555 32.831C35.3555 33.3912 35.8115 33.9515 36.4956 33.9515C37.1797 33.9515 37.6357 33.3912 37.6357 32.831Z" fill="#1459A4"/>
<path d="M14.3789 38.3214C14.3789 37.537 15.063 36.8647 15.8611 36.8647C16.6591 36.8647 17.3432 37.537 17.3432 38.3214C17.3432 39.1058 16.6591 39.7781 15.8611 39.7781C15.063 39.7781 14.3789 39.1058 14.3789 38.3214Z" fill="#1459A4"/>
<path d="M10.1602 38.3214C10.1602 37.6491 10.7302 37.0889 11.4143 37.0889C12.0984 37.0889 12.6684 37.6491 12.6684 38.3214C12.6684 38.9937 12.0984 39.554 11.4143 39.554C10.6162 39.554 10.1602 38.9937 10.1602 38.3214Z" fill="#1459A4"/>
<path d="M6.39844 38.3214C6.39844 37.7612 6.8545 37.313 7.42455 37.313C7.99461 37.313 8.45065 37.7612 8.45065 38.3214C8.45065 38.8817 7.99461 39.3299 7.42455 39.3299C6.8545 39.3299 6.39844 38.8817 6.39844 38.3214Z" fill="#1459A4"/>
<path d="M28.062 38.3214C28.062 37.537 27.3779 36.8647 26.5798 36.8647C25.7817 36.8647 25.0977 37.537 25.0977 38.3214C25.0977 39.1058 25.7817 39.7781 26.5798 39.7781C27.3779 39.7781 28.062 39.1058 28.062 38.3214Z" fill="#1459A4"/>
<path d="M32.2778 38.3214C32.2778 37.6491 31.7077 37.0889 31.0237 37.0889C30.3396 37.0889 29.7695 37.6491 29.7695 38.3214C29.7695 38.9937 30.3396 39.554 31.0237 39.554C31.7077 39.554 32.2778 38.9937 32.2778 38.3214Z" fill="#1459A4"/>
<path d="M36.0405 38.3214C36.0405 37.7612 35.5844 37.313 35.0144 37.313C34.4443 37.313 33.9883 37.7612 33.9883 38.3214C33.9883 38.8817 34.4443 39.3299 35.0144 39.3299C35.5844 39.3299 36.0405 38.8817 36.0405 38.3214Z" fill="#1459A4"/>
<path d="M15.0625 43.2513C15.0625 42.467 15.6326 41.9067 16.4306 41.9067C17.2287 41.9067 17.7988 42.467 17.7988 43.2513C17.7988 44.0357 17.2287 44.596 16.4306 44.596C15.6326 44.596 15.0625 44.0357 15.0625 43.2513Z" fill="#1459A4"/>
<path d="M11.1875 43.2514C11.1875 42.6911 11.6435 42.1309 12.3276 42.1309C12.8977 42.1309 13.4677 42.5791 13.4677 43.2514C13.4677 43.8116 13.0117 44.3719 12.3276 44.3719C11.7576 44.3719 11.1875 43.8116 11.1875 43.2514Z" fill="#1459A4"/>
<path d="M27.3769 43.2513C27.3769 42.467 26.8069 41.9067 26.0088 41.9067C25.2107 41.9067 24.6406 42.467 24.6406 43.2513C24.6406 44.0357 25.2107 44.596 26.0088 44.596C26.6929 44.596 27.3769 44.0357 27.3769 43.2513Z" fill="#1459A4"/>
<path d="M15.6328 47.6212C15.6328 46.9489 16.2029 46.3887 16.887 46.3887C17.571 46.3887 18.1411 46.9489 18.1411 47.6212C18.1411 48.2935 17.571 48.8538 16.887 48.8538C16.2029 48.8538 15.6328 48.2935 15.6328 47.6212Z" fill="#1459A4"/>
<path d="M26.6919 47.6212C26.6919 46.9489 26.1218 46.3887 25.4377 46.3887C24.7537 46.3887 24.1836 46.9489 24.1836 47.6212C24.1836 48.2935 24.7537 48.8538 25.4377 48.8538C26.2358 48.8538 26.6919 48.2935 26.6919 47.6212Z" fill="#1459A4"/>
<path d="M31.1396 43.2514C31.1396 42.6911 30.6836 42.1309 29.9995 42.1309C29.4294 42.1309 28.8594 42.5791 28.8594 43.2514C28.8594 43.8116 29.3154 44.3719 29.9995 44.3719C30.6836 44.3719 31.1396 43.8116 31.1396 43.2514Z" fill="#1459A4"/>
<path d="M21.2603 -0.0838147L19.5664 1.5791L21.2584 3.2439L22.9524 1.58098L21.2603 -0.0838147Z" fill="#1459A4"/>
<path d="M21.2189 5.08989L19.1211 7.14844L21.2157 9.21019L23.3135 7.15165L21.2189 5.08989Z" fill="#1459A4"/>
<path d="M18.7109 13.222L21.2192 10.7568L23.7275 13.222L21.2192 15.6871L18.7109 13.222Z" fill="#1459A4"/>
<path d="M21.2001 24.2873L18.6992 26.7417L21.1966 29.1996L23.6975 26.7452L21.2001 24.2873Z" fill="#1459A4"/>
<path d="M21.2081 30.5941L18.9492 32.811L21.2049 35.0311L23.4638 32.8142L21.2081 30.5941Z" fill="#1459A4"/>
<path d="M21.2007 36.4149L19.1836 38.394L21.1973 40.3765L23.2145 38.3974L21.2007 36.4149Z" fill="#1459A4"/>
<path d="M19.3945 43.2513L21.2187 41.4585L23.0429 43.2513L21.2187 45.0441L19.3945 43.2513Z" fill="#1459A4"/>
<path d="M21.2187 46.034L19.6055 47.6177L21.2169 49.2032L22.8302 47.6195L21.2187 46.034Z" fill="#1459A4"/>
<path d="M21.1793 50.1135L19.7266 51.5381L21.176 52.9659L22.6288 51.5413L21.1793 50.1135Z" fill="#1459A4"/>
<path d="M21.1941 16.8205L18.1289 19.8296L21.1907 22.8421L24.2559 19.833L21.1941 16.8205Z" fill="#1459A4"/>
<path d="M61.6953 26.5557H66.5978V25.4352H63.1775V23.0821H66.3698V21.8496H63.1775V19.7206H66.4838V18.6001H61.6953V26.5557Z" fill="#1459A4"/>
<path d="M72.0707 18.4883C71.5007 18.4883 70.9306 18.6003 70.3606 18.8244C69.9045 19.0485 69.4485 19.2726 68.9924 19.7208C68.6504 20.057 68.3083 20.6172 68.0803 21.0654C67.8523 21.5136 67.7383 22.0739 67.7383 22.7462C67.7383 23.3065 67.8523 23.8667 68.0803 24.427C68.3083 24.8752 68.6504 25.3234 68.9924 25.7716C69.3345 26.1077 69.7905 26.4439 70.3606 26.668C70.8166 26.8921 71.3867 27.0041 72.0707 27.0041C72.7548 27.0041 73.3249 26.8921 73.7809 26.668C74.237 26.4439 74.693 26.2198 75.1491 25.7716C75.6051 25.4354 75.8331 24.8752 76.0612 24.427C76.2892 23.9788 76.4032 23.4185 76.4032 22.7462C76.4032 22.186 76.2892 21.6257 76.0612 21.0654C75.8331 20.5052 75.4911 20.057 75.1491 19.7208C74.807 19.3847 74.351 19.0485 73.7809 18.8244C73.2109 18.4883 72.6408 18.4883 72.0707 18.4883ZM72.0707 25.4354C71.6147 25.4354 71.2727 25.3234 70.9306 25.2113C70.5886 25.0993 70.2465 24.8752 70.0185 24.6511C69.7905 24.427 69.5625 24.0908 69.4485 23.7547C69.3344 23.4185 69.2204 22.9703 69.2204 22.6342C69.2204 22.186 69.3344 21.8498 69.4485 21.5137C69.5625 21.1775 69.7905 20.8413 70.0185 20.6172C70.2465 20.3931 70.5886 20.169 70.9306 20.057C71.2727 19.9449 71.6147 19.8329 72.0707 19.8329C72.5268 19.8329 72.8688 19.9449 73.2109 20.057C73.5529 20.169 73.8949 20.3931 74.123 20.6172C74.351 20.8413 74.579 21.1775 74.693 21.5137C74.807 21.8498 74.921 22.298 74.921 22.6342C74.921 23.0824 74.807 23.4185 74.693 23.7547C74.579 24.0908 74.351 24.427 74.123 24.6511C73.8949 24.8752 73.5529 25.0993 73.2109 25.2113C72.7548 25.3234 72.4128 25.4354 72.0707 25.4354ZM70.2465 23.0824H73.7809V21.9619H70.2465V23.0824Z" fill="#1459A4"/>
<path d="M84.2675 26.5557H85.4076V18.6001H84.0394V24.2026L79.1369 18.6001H77.8828V26.5557H79.251V20.7291L84.2675 26.5557Z" fill="#1459A4"/>
<path d="M88.9431 18.6001H87.4609V26.5557H88.9431V18.6001Z" fill="#1459A4"/>
<path d="M96.0133 26.5557H97.9516L94.0751 22.2978L97.1535 18.6001H95.4433L92.365 22.2978V18.6001H90.8828V26.5557H92.365V22.5219L92.479 22.6339L96.0133 26.5557Z" fill="#1459A4"/>
<path d="M104.564 26.5557H105.932V18.6001H104.564V21.9616H100.345V18.6001H98.8633V26.5557H100.345V23.0821H104.564V26.5557Z" fill="#1459A4"/>
<path d="M67.5079 37.8728H68.9901L65.6837 29.8052H64.2016L60.7812 37.8728H62.2634L63.0615 35.8559H66.5958L67.5079 37.8728ZM66.2538 34.8475H63.6315L64.9997 31.598L66.2538 34.8475Z" fill="#1459A4"/>
<path d="M69.9023 37.8731H71.3845V34.5116H72.4106C73.4367 34.5116 74.1208 34.2875 74.6908 33.8393C75.1469 33.3911 75.3749 32.8308 75.3749 32.1585C75.3749 31.4862 75.1469 30.8139 74.6908 30.4777C74.2348 30.0295 73.5507 29.9175 72.5246 29.9175H69.9023V37.8731ZM72.5246 33.3911H71.3845V31.038H72.6386C73.0947 31.038 73.4367 31.15 73.6647 31.3741C73.8927 31.5982 74.0068 31.8223 74.0068 32.1585C74.0068 32.4946 73.8927 32.8308 73.6647 33.0549C73.3227 33.279 72.9807 33.3911 72.5246 33.3911Z" fill="#1459A4"/>
<path d="M82.5587 37.8731H84.3829L80.9626 33.7272L84.1549 29.9175H82.3307L80.0505 32.7187L77.8842 29.9175H76.0601L79.1384 33.7272L75.832 37.8731H77.6562L80.0505 34.8477L82.5587 37.8731Z" fill="#1459A4"/>
<path d="M91.1108 37.8731H92.4789V29.9175H91.1108V33.279H86.8923V29.9175H85.4102V37.8731H86.8923V34.5116H91.1108V37.8731Z" fill="#1459A4"/>
<path d="M61.3516 49.19H67.7362V48.1815H63.6318L65.57 45.0441L63.8598 42.3549H67.5082V41.2344H61.4656L63.8598 45.0441V45.1562L61.3516 49.19Z" fill="#1459A4"/>
<path d="M71.0449 49.19H72.527V42.3549H75.2633V41.2344H68.3086V42.3549H71.0449V49.19Z" fill="#1459A4"/>
<path d="M79.9379 41.1226C79.3678 41.1226 78.7978 41.2346 78.2277 41.4587C77.7717 41.6828 77.3156 41.9069 76.8596 42.3551C76.5176 42.6913 76.1755 43.1395 75.9475 43.6997C75.7195 44.26 75.6055 44.7082 75.6055 45.3805C75.6055 45.9407 75.7195 46.501 75.9475 47.0612C76.1755 47.5094 76.5176 47.9577 76.8596 48.4059C77.2016 48.742 77.6577 49.0782 78.2277 49.3023C78.6838 49.5264 79.2538 49.6384 79.9379 49.6384C80.622 49.6384 81.192 49.5264 81.6481 49.3023C82.1041 49.0782 82.5602 48.8541 83.0162 48.4059C83.4723 48.0697 83.7003 47.6215 83.9283 47.0612C84.1563 46.613 84.2704 46.0528 84.2704 45.3805C84.2704 44.8202 84.1563 44.26 83.9283 43.6997C83.7003 43.2515 83.3583 42.6913 83.0162 42.3551C82.6742 42.019 82.2181 41.6828 81.6481 41.4587C81.192 41.2346 80.622 41.1226 79.9379 41.1226ZM79.9379 48.0697C79.4819 48.0697 79.1398 47.9577 78.7978 47.8456C78.4558 47.7336 78.1137 47.5095 77.8857 47.2853C77.6577 47.0612 77.4297 46.7251 77.3156 46.3889C77.2016 46.0528 77.0876 45.6046 77.0876 45.2684C77.0876 44.8202 77.2016 44.4841 77.3156 44.1479C77.4297 43.8118 77.6577 43.4756 77.8857 43.2515C78.1137 43.0274 78.4558 42.8033 78.7978 42.6913C79.1398 42.5792 79.4819 42.4672 79.9379 42.4672C80.2799 42.4672 80.736 42.5792 81.078 42.6913C81.4201 42.8033 81.7621 43.0274 81.9901 43.2515C82.2181 43.4756 82.4462 43.8118 82.5602 44.1479C82.6742 44.4841 82.7882 44.9323 82.7882 45.2684C82.7882 45.7166 82.6742 46.0528 82.5602 46.3889C82.4462 46.7251 82.2181 47.0612 81.9901 47.2853C81.7621 47.5095 81.4201 47.7336 81.078 47.8456C80.736 48.0697 80.394 48.0697 79.9379 48.0697Z" fill="#1459A4"/>
<path d="M87.2322 41.2344H85.75V49.19H87.2322V41.2344Z" fill="#1459A4"/>
<path d="M94.9845 49.19H96.8087L93.3883 45.0441L96.5807 41.2344H94.7565L92.4762 44.0356L90.31 41.2344H88.4858L91.5642 45.0441L88.2578 49.19H90.082L92.4762 46.1646L94.9845 49.19Z" fill="#1459A4"/>
<path d="M103.423 49.19H104.905V41.2344H103.423V44.5959H99.3181V41.2344H97.8359V49.19H99.3181V45.8285H103.423V49.19Z" fill="#1459A4"/>
<path d="M113.229 49.19H114.711V41.2344H113.343L110.721 44.5959L110.607 44.4838L107.985 41.2344H106.73V49.19H108.099V43.4754L110.493 46.5008L110.721 46.6128L113.001 43.6995L113.229 43.4754V49.19Z" fill="#1459A4"/>
<path d="M122.235 49.1902H123.717L120.41 41.1226H118.928L115.508 49.1902H116.99L117.788 47.1733H121.322L122.235 49.1902ZM120.98 46.1648H118.358L119.726 42.9154L120.98 46.1648Z" fill="#1459A4"/>
<path d="M125.997 49.19H127.593V42.3549H130.216V41.2344H123.375V42.3549H125.997V49.19Z" fill="#1459A4"/>
<path d="M135.572 49.1901H138.993V48.0696H137.168L137.396 47.9576C137.966 47.6214 138.422 47.0612 138.65 46.5009C138.879 45.9407 139.107 45.3804 139.107 44.8202C139.107 44.2599 138.993 43.6997 138.765 43.2514C138.536 42.8032 138.194 42.355 137.852 42.0189C137.51 41.6827 137.054 41.4586 136.598 41.2345C135.686 40.8984 134.546 40.8984 133.52 41.2345C133.064 41.4586 132.608 41.6827 132.266 42.0189C131.924 42.355 131.582 42.6912 131.354 43.2514C131.126 43.6997 131.012 44.2599 131.012 44.8202C131.012 45.3804 131.126 45.9407 131.468 46.5009C131.696 47.0612 132.152 47.5094 132.722 47.9576L132.95 48.0696H131.126V49.1901H134.546V48.1817C134.204 47.9576 133.862 47.8455 133.634 47.5094C133.406 47.2853 133.178 46.9491 133.064 46.613C132.95 46.2768 132.836 46.0527 132.722 45.7166C132.722 45.3804 132.608 45.1563 132.608 44.8202C132.608 44.372 132.722 44.0358 132.836 43.6997C132.95 43.3635 133.178 43.1394 133.406 42.8032C133.634 42.5791 133.862 42.355 134.204 42.243C134.774 42.0189 135.572 42.0189 136.142 42.243C136.484 42.355 136.712 42.5791 136.94 42.8032C137.168 43.0273 137.396 43.3635 137.51 43.6997C137.624 44.0358 137.738 44.372 137.738 44.8202C137.738 45.0443 137.738 45.3804 137.624 45.7166C137.624 46.0527 137.51 46.2768 137.282 46.613C137.168 46.9491 136.94 47.1732 136.712 47.5094C136.484 47.7335 136.142 47.9576 135.8 48.1817V49.1901H135.572Z" fill="#1459A4"/>
<path d="M146.861 49.19H148.001V41.2344H146.633V46.949L141.731 41.2344H140.477V49.19H141.845V43.4754L146.861 49.19Z" fill="#1459A4"/>
<path d="M51.5442 18.4883H51.2031V49.1902H51.5442V18.4883Z" fill="#1459A4"/>
</svg>
