<svg width="300" height="85" viewBox="0 0 300 85" fill="none" xmlns="http://www.w3.org/2000/svg">
<path d="M144.746 30.5143C144.746 32.1205 145.447 33.2677 146.614 34.1855C147.781 35.1033 149.182 35.5622 151.05 35.5622C152.684 35.5622 153.851 35.3328 154.785 34.6444C155.719 33.9561 156.186 33.0383 156.186 31.891C156.186 31.2027 155.953 30.5143 155.486 30.0554C155.019 29.5965 154.318 29.1376 153.618 28.9082C153.385 28.6787 152.918 28.6787 152.217 28.4493C151.75 28.2198 151.283 28.2198 150.816 28.2198C150.349 28.2198 150.116 27.9904 149.416 27.7609C147.548 27.5315 146.147 27.0726 144.513 26.3842C143.812 25.9253 143.112 25.6959 142.645 25.0075C141.711 24.0897 141.011 22.4836 141.011 20.4185C141.011 18.124 141.945 16.2884 143.579 14.9117C145.213 13.535 147.548 12.8467 150.349 12.8467C153.385 12.8467 155.719 13.535 157.353 14.9117C159.221 16.2884 159.922 18.3535 160.155 20.648H155.953C155.719 19.2713 155.252 18.3535 154.318 17.4357C153.385 16.7473 151.984 16.2884 150.583 16.2884C147.548 16.2884 145.68 17.6651 145.68 19.9596C145.68 20.648 145.914 21.1069 146.147 21.5658C146.614 22.0247 146.847 22.2541 147.548 22.713C148.248 22.9425 148.715 23.1719 149.649 23.4014C150.116 23.4014 150.583 23.6308 151.05 23.6308C151.517 23.6308 151.984 23.8603 152.451 23.8603C153.385 24.0897 154.318 24.3192 155.019 24.3192C155.719 24.3192 156.42 24.7781 157.353 25.237C158.054 25.6959 158.754 25.9253 159.221 26.6137C160.155 27.5315 160.855 29.1376 160.855 30.9732C160.855 33.2677 159.922 35.1033 158.287 36.48C156.42 37.8567 154.085 38.5451 151.283 38.5451C148.015 38.5451 145.68 37.8567 143.812 36.2506C141.945 34.6444 141.011 32.5794 140.777 30.0554L144.746 30.5143Z" fill="#1459A4"/>
<path d="M182.104 35.5636V39.0053H180.003C177.435 39.0053 176.501 37.8581 176.501 36.0225C175.1 38.0875 172.999 39.2348 170.197 39.2348C168.096 39.2348 166.462 38.7759 165.061 37.8581C163.66 36.9403 163.193 35.5636 163.193 33.9574C163.193 30.0568 165.995 27.9917 171.365 27.9917H176.267V26.8445C176.267 24.7794 174.633 23.4027 172.065 23.4027C169.73 23.4027 168.096 24.55 167.863 26.1561H163.894C164.127 24.3205 165.061 22.9438 166.462 21.7966C167.863 20.6493 169.964 20.1904 172.299 20.1904C177.435 20.1904 180.236 22.4849 180.236 27.0739V34.6458C180.236 35.5636 180.703 35.793 181.404 35.793H182.104V35.5636ZM176.034 30.5157H171.131C168.563 30.5157 167.162 31.4335 167.162 33.2691C167.162 34.8752 168.563 36.0225 170.664 36.0225C172.299 36.0225 173.699 35.5636 174.633 34.6458C175.567 33.728 176.034 32.5807 176.034 31.204V30.5157Z" fill="#1459A4"/>
<path d="M182.338 23.6299V20.1882H185.606V18.3526C185.606 14.9108 187.241 13.3047 190.976 13.3047H194.712V16.7464H191.443C190.042 16.7464 189.575 17.2053 189.575 18.582V20.1882H194.712V23.6299H189.575V38.7736H185.606V23.6299H182.338Z" fill="#1459A4"/>
<path d="M197.982 36.4814C196.114 34.6458 195.414 32.3513 195.414 29.5979C195.414 26.8445 196.348 24.3205 197.982 22.7144C199.616 20.8788 201.951 20.1904 204.753 20.1904C207.554 20.1904 209.655 20.8788 211.523 22.4849C213.157 24.0911 214.091 26.1561 214.091 28.9095C214.091 29.3684 214.091 29.8273 214.091 30.5157H199.85V30.7451C199.85 32.3513 200.317 33.728 201.484 34.6458C202.418 35.5636 203.585 36.0225 205.22 36.0225C207.788 36.0225 209.422 34.8752 210.122 32.8102H214.091C213.858 34.6458 212.691 36.2519 211.29 37.3992C209.655 38.5464 207.788 39.2348 205.453 39.2348C202.185 39.0053 199.85 38.317 197.982 36.4814ZM209.889 27.5328C209.655 24.7794 207.554 23.1733 204.753 23.1733C203.352 23.1733 202.418 23.6322 201.251 24.3205C200.317 25.0089 199.616 26.1561 199.616 27.5328H209.889Z" fill="#1459A4"/>
<path d="M227.863 20.1904V23.8616H225.996C222.494 23.8616 221.326 26.615 221.326 29.5979V39.0053H217.357V20.4199H220.859L221.326 23.1733C222.494 21.3377 224.128 20.4199 226.93 20.4199H227.863V20.1904Z" fill="#1459A4"/>
<path d="M144.049 69.0623C141.948 66.7678 140.547 63.5555 140.547 59.6548C140.547 51.8535 145.45 46.5762 153.154 46.5762C156.189 46.5762 158.757 47.2645 160.625 49.1001C162.726 50.7063 163.893 53.0008 164.36 55.5247H159.925C159.224 52.3124 156.656 50.2474 153.154 50.2474C150.819 50.2474 148.718 51.1652 147.317 52.7713C145.917 54.6069 144.983 56.672 144.983 59.4254C144.983 62.1788 145.683 64.4733 147.084 66.0794C148.485 67.915 150.586 68.6034 152.921 68.6034C155.022 68.6034 156.656 68.1445 158.057 66.9972C159.458 65.85 160.158 64.2438 160.391 62.4082V61.7199H153.154V58.2781H164.36V72.2746H161.092L160.625 68.8328C159.925 69.9801 158.757 70.6684 157.59 71.3568C156.189 72.0451 154.555 72.504 152.687 72.504C149.185 72.7335 146.15 71.3568 144.049 69.0623Z" fill="#1459A4"/>
<path d="M187.006 69.0626V72.5043H184.905C182.337 72.5043 181.403 71.3571 181.403 69.5215C180.002 71.5865 177.901 72.7338 175.1 72.7338C172.998 72.7338 171.364 72.2749 169.963 71.3571C168.563 70.4393 168.096 69.0626 168.096 67.4564C168.096 63.5558 170.897 61.4907 176.267 61.4907H181.17V60.114C181.17 58.049 179.536 56.6723 176.967 56.6723C174.633 56.6723 172.998 57.8195 172.765 59.4257H168.796C169.03 57.5901 169.963 56.2134 171.364 55.0661C172.765 53.9189 174.866 53.46 177.201 53.46C182.337 53.46 185.139 55.7545 185.139 60.3435V67.9153C185.139 68.8331 185.606 69.0626 186.306 69.0626H187.006ZM181.17 64.2441H176.267C173.699 64.2441 172.298 65.1619 172.298 66.9975C172.298 68.6037 173.699 69.7509 175.8 69.7509C177.434 69.7509 178.835 69.292 179.769 68.3742C180.703 67.4564 181.17 66.3092 181.17 64.9325V64.2441Z" fill="#1459A4"/>
<path d="M218.292 61.7202V72.5043H214.324V61.9496C214.324 58.7373 212.923 56.9017 210.355 56.9017C208.954 56.9017 207.787 57.3606 207.086 58.2784C206.386 59.1962 205.919 60.5729 205.919 62.1791V72.2749H201.95V61.7202C201.95 58.5079 200.549 56.6723 197.981 56.6723C196.58 56.6723 195.646 57.1312 194.712 58.2784C194.012 59.1962 193.545 60.5729 193.545 62.1791V72.2749H189.576V53.6894H193.078L193.545 56.2134C194.946 54.3778 196.814 53.46 199.148 53.46C201.716 53.46 203.818 54.6072 204.985 56.9017C206.386 54.8367 208.487 53.46 211.522 53.46C215.024 53.46 218.292 55.7545 218.292 61.7202Z" fill="#1459A4"/>
<path d="M238.601 56.2122C240.235 57.8183 241.169 60.3423 241.169 63.3251C241.169 66.0785 240.235 68.373 238.601 70.2086C236.966 72.0442 234.865 72.7326 232.064 72.7326C229.262 72.7326 227.161 71.8148 225.76 69.7497L225.293 72.5031H221.791V47.0342H225.76V56.6711C227.161 54.606 229.262 53.6882 231.83 53.6882C234.632 53.4588 236.966 54.3766 238.601 56.2122ZM235.566 67.6847C236.499 66.5374 237.2 64.9313 237.2 63.0957C237.2 61.2601 236.733 59.8834 235.566 58.7361C234.398 57.5889 233.231 56.9005 231.597 56.9005C229.962 56.9005 228.562 57.3594 227.628 58.5067C226.694 59.6539 225.993 61.0306 225.993 62.8662C225.993 64.7018 226.46 66.308 227.628 67.4552C228.562 68.6025 229.962 69.2908 231.597 69.2908C232.997 69.2908 234.398 68.8319 235.566 67.6847Z" fill="#1459A4"/>
<path d="M244.205 72.5031V47.0342H248.174V72.5031H244.205Z" fill="#1459A4"/>
<path d="M254.243 51.1652C253.542 51.1652 252.842 50.9357 252.609 50.4768C252.142 50.0179 251.908 49.559 251.908 48.8707C251.908 48.1823 252.142 47.494 252.609 47.2645C253.076 46.8056 253.542 46.5762 254.243 46.5762C254.943 46.5762 255.644 46.8056 256.111 47.2645C256.578 47.7234 256.811 48.1823 256.811 48.8707C256.811 49.559 256.578 50.0179 256.111 50.4768C255.644 50.9357 254.943 51.1652 254.243 51.1652ZM252.142 72.504V53.9186H256.111V72.504H252.142Z" fill="#1459A4"/>
<path d="M277.826 62.179V72.5042H273.857V62.4084C273.857 58.7372 272.223 56.9016 269.422 56.9016C266.153 56.9016 264.285 59.1961 264.285 63.0968V72.5042H260.316V53.9188H263.818L264.285 56.4427C265.686 54.6071 267.787 53.6893 270.355 53.6893C274.324 53.4599 277.826 55.7544 277.826 62.179Z" fill="#1459A4"/>
<path d="M296.499 53.6894H300.001V71.5865C300.001 76.8639 296.966 79.8467 290.195 79.8467C287.627 79.8467 285.526 79.3878 283.892 78.2406C282.257 77.0933 281.323 75.4872 281.323 73.4221H285.526C285.993 75.4872 287.86 76.6344 290.662 76.6344C294.398 76.6344 296.032 74.7988 296.032 71.3571V69.292C294.631 71.3571 292.53 72.2749 289.728 72.2749C287.16 72.2749 284.825 71.3571 283.191 69.7509C281.557 68.1448 280.623 65.8503 280.623 62.8674C280.623 60.114 281.557 57.8195 283.191 55.9839C284.825 54.1483 286.927 53.46 289.728 53.46C292.53 53.46 294.631 54.6072 296.032 56.6723L296.499 53.6894ZM290.429 69.292C292.063 69.292 293.464 68.8331 294.398 67.6859C295.331 66.5386 296.032 65.1619 296.032 63.3263C296.032 61.4907 295.565 59.8846 294.398 58.7373C293.23 57.5901 292.063 56.9017 290.429 56.9017C288.794 56.9017 287.394 57.3606 286.46 58.5079C285.526 59.6551 284.825 61.0318 284.825 62.8674C284.825 64.703 285.292 66.0797 286.46 67.227C287.627 68.3742 288.794 69.292 290.429 69.292Z" fill="#1459A4"/>
<path d="M49.9599 59.657C33.1504 59.657 19.6094 46.3489 19.6094 29.8285C19.6094 13.3081 33.1504 0 49.9599 0C62.5671 0 74.0069 7.8013 78.4428 19.5032L70.038 22.2567C67.003 13.9965 58.8316 8.7191 49.9599 8.7191C38.2866 8.7191 28.7145 18.1266 28.7145 29.5991C28.7145 41.0716 38.2866 50.479 49.9599 50.479V59.657Z" fill="#1459A4"/>
<path d="M48.5571 84.8972C35.9499 84.8972 24.5101 77.0959 20.0742 65.3939L28.7125 62.1816C31.7475 70.4418 39.9188 75.7192 48.7905 75.7192C60.4638 75.7192 70.0359 66.3117 70.0359 54.8392C70.0359 43.3667 60.4638 33.9593 48.7905 33.9593V25.0107C65.6001 25.0107 79.1411 38.3188 79.1411 54.8392C79.1411 71.3596 65.1331 84.8972 48.5571 84.8972Z" fill="#1459A4"/>
<path d="M8.17131 37.6308C12.6842 37.6308 16.3426 34.0353 16.3426 29.6001C16.3426 25.1648 12.6842 21.5693 8.17131 21.5693C3.65842 21.5693 0 25.1648 0 29.6001C0 34.0353 3.65842 37.6308 8.17131 37.6308Z" fill="#1459A4"/>
<path d="M90.3529 63.0996C94.8658 63.0996 98.5243 59.5041 98.5243 55.0688C98.5243 50.6336 94.8658 47.0381 90.3529 47.0381C85.8401 47.0381 82.1816 50.6336 82.1816 55.0688C82.1816 59.5041 85.8401 63.0996 90.3529 63.0996Z" fill="#1459A4"/>
<path d="M120.468 8.03125H119.77V79.8491H120.468V8.03125Z" fill="#1459A4"/>
</svg>
