<svg width="170" height="49" viewBox="0 0 170 49" fill="none" xmlns="http://www.w3.org/2000/svg">
<path d="M81.6641 17.7324C81.6641 18.5446 82.069 19.3567 82.744 19.7628C83.4189 20.3042 84.2288 20.5749 85.1737 20.5749C86.1186 20.5749 86.7935 20.4396 87.3334 20.0335C87.8733 19.6274 88.1433 19.086 88.1433 18.4092C88.1433 18.0031 88.0083 17.597 87.7384 17.3263C87.4684 17.0556 87.0635 16.7849 86.7935 16.6495C86.6585 16.5142 86.3885 16.5142 86.1186 16.3788C85.8486 16.2434 85.5786 16.2434 85.3087 16.2434C85.0387 16.2434 84.7687 16.1081 84.3638 16.1081C83.2839 15.9727 82.474 15.702 81.6641 15.2959C81.2591 15.0252 80.8542 14.8899 80.5842 14.6191C80.0443 14.0777 79.6393 13.1302 79.6393 12.0473C79.6393 10.8291 80.1793 9.74621 81.1241 8.93405C82.069 8.1219 83.2839 7.71582 84.9037 7.71582C86.5235 7.71582 87.8734 8.1219 88.9532 8.93405C89.7631 9.74621 90.3031 10.8291 90.3031 12.1827H87.8734C87.7384 11.3705 87.4684 10.8291 86.9285 10.423C86.3885 10.0169 85.5786 9.74621 84.7687 9.74621C83.0139 9.74621 81.9341 10.5584 81.9341 11.912C81.9341 12.318 82.069 12.5887 82.204 12.8595C82.474 13.1302 82.609 13.2655 83.0139 13.4009C83.4189 13.5363 83.6888 13.6716 84.2288 13.807C84.4988 13.807 84.7687 13.9423 84.9037 13.9423C85.0387 13.9423 85.4436 14.0777 85.7136 14.0777C86.2535 14.2131 86.7935 14.3484 87.1984 14.3484C87.6034 14.4838 88.0083 14.6191 88.5483 14.8899C88.9532 15.1606 89.3582 15.2959 89.6281 15.5666C90.1681 16.1081 90.573 17.0556 90.573 18.1385C90.573 19.4921 90.0331 20.5749 89.0882 21.3871C88.1433 22.1992 86.7935 22.6053 85.1737 22.6053C83.4189 22.6053 81.9341 22.1992 80.8542 21.2517C79.7743 20.3042 79.2344 19.086 79.2344 17.7324H81.6641Z" fill="white"/>
<path d="M102.722 20.5751V22.6055H101.507C100.158 22.6055 99.4827 22.064 99.4827 20.8458C98.6728 22.064 97.458 22.7408 95.9731 22.7408C94.7583 22.7408 93.8134 22.4701 93.1385 21.9287C92.4636 21.3872 92.0586 20.5751 92.0586 19.6276C92.0586 17.4618 93.6784 16.2436 96.6481 16.2436H99.3477V15.5668C99.3477 14.3486 98.5378 13.6718 97.053 13.6718C95.7032 13.6718 94.7583 14.3486 94.6233 15.2961H92.4636C92.5985 14.2132 93.0035 13.4011 93.9484 12.8596C94.7583 12.3182 95.8382 11.9121 97.188 11.9121C100.023 11.9121 101.642 13.2657 101.642 15.8375V20.169C101.642 20.7105 101.912 20.8458 102.317 20.8458H102.722V20.5751ZM99.3477 17.7326H96.5131C95.0282 17.7326 94.3533 18.274 94.3533 19.3569C94.3533 20.3044 95.1632 20.8458 96.3781 20.8458C97.323 20.8458 97.9979 20.5751 98.5378 20.0337C99.0778 19.4922 99.3477 18.8154 99.3477 18.0033V17.7326Z" fill="white"/>
<path d="M102.855 13.8074V11.777H104.745V10.8295C104.745 8.93444 105.69 7.85156 107.715 7.85156H109.875V9.88195H107.985C107.31 9.88195 106.905 10.1527 106.905 10.9648V11.9123H109.875V13.9427H107.04V22.7411H104.745V13.9427H102.855V13.8074Z" fill="white"/>
<path d="M111.629 21.1167C110.684 20.1692 110.145 18.8156 110.145 17.1913C110.145 15.567 110.684 14.2134 111.629 13.1306C112.574 12.183 113.924 11.6416 115.409 11.6416C117.029 11.6416 118.244 12.0477 119.188 12.9952C120.133 13.9427 120.673 15.1609 120.673 16.7852C120.673 17.056 120.673 17.3267 120.673 17.5974H112.574V17.7328C112.574 18.6803 112.844 19.3571 113.384 19.8985C113.924 20.4399 114.599 20.7107 115.544 20.7107C116.894 20.7107 117.974 20.0339 118.244 18.8156H120.538C120.403 19.8985 119.863 20.846 118.918 21.5228C117.974 22.1996 117.029 22.6057 115.679 22.6057C113.924 22.6057 112.709 22.1996 111.629 21.1167ZM118.379 15.9731C118.244 14.3488 117.164 13.5366 115.544 13.5366C114.869 13.5366 114.194 13.8073 113.654 14.2134C113.114 14.6195 112.844 15.2963 112.709 15.9731H118.379Z" fill="white"/>
<path d="M128.369 11.7764V13.9421H127.424C125.399 13.9421 124.724 15.5664 124.724 17.1907V22.6051H122.43V11.7764H124.454L124.724 13.4007C125.399 12.4532 126.209 11.7764 127.829 11.7764H128.369Z" fill="white"/>
<path d="M81.1241 39.9317C79.9093 38.5781 79.2344 36.6831 79.2344 34.5174C79.2344 30.0505 82.069 26.9372 86.3885 27.0726C88.1433 27.0726 89.4932 27.4787 90.708 28.4262C91.7879 29.3737 92.5978 30.5919 92.7328 32.2163H90.3031C89.8981 30.3212 88.4133 29.2384 86.3885 29.2384C85.0387 29.2384 83.9588 29.7798 83.0139 30.7273C82.204 31.6748 81.7991 33.0284 81.7991 34.6527C81.7991 36.277 82.204 37.4953 83.0139 38.5781C83.8238 39.5256 84.9037 40.0671 86.3885 40.0671C87.6034 40.0671 88.5483 39.7964 89.3582 39.1196C90.1681 38.4428 90.573 37.6306 90.573 36.4124V36.0063H86.5235V33.8406H92.8678V41.8267H90.978L90.708 39.7964C90.3031 40.3378 89.7631 40.8792 88.9532 41.2853C88.1433 41.6914 87.1984 41.8267 86.1186 41.8267C84.0938 41.9621 82.339 41.15 81.1241 39.9317Z" fill="white"/>
<path d="M105.422 39.9315V41.9619H104.207C102.857 41.9619 102.182 41.4205 102.182 40.2023C101.372 41.4205 100.157 42.0973 98.6724 42.0973C97.4575 42.0973 96.5126 41.8266 95.8377 41.2851C95.1628 40.7437 94.7578 39.9315 94.7578 38.984C94.7578 36.8183 96.3776 35.6 99.3473 35.6H102.047V34.9232C102.047 33.705 101.237 33.0282 99.7522 33.0282C98.4024 33.0282 97.4575 33.705 97.3225 34.6525H95.1628C95.2978 33.5697 95.7027 32.7575 96.6476 32.2161C97.4575 31.6746 98.5374 31.2686 99.8872 31.2686C102.722 31.2686 104.342 32.6221 104.342 35.194V39.5255C104.342 40.0669 104.612 40.2023 105.017 40.2023H105.422V39.9315ZM102.047 37.089H99.2123C97.7275 37.089 97.0525 37.6304 97.0525 38.7133C97.0525 39.6608 97.8625 40.2023 99.0773 40.2023C100.022 40.2023 100.697 39.9315 101.237 39.3901C101.777 38.8487 102.047 38.1719 102.047 37.3597V37.089Z" fill="white"/>
<path d="M122.97 35.6003V41.8268H120.675V35.7356C120.675 33.8406 119.865 32.8931 118.38 32.8931C117.57 32.8931 117.03 33.1638 116.491 33.7052C115.951 34.2467 115.816 35.0588 115.816 36.0063V41.8268H113.521V35.7356C113.521 33.8406 112.711 32.8931 111.226 32.8931C110.416 32.8931 109.876 33.1638 109.336 33.7052C108.796 34.2467 108.661 35.0588 108.661 36.0063V41.6914H106.637V31.1334H108.661L108.931 32.487C109.741 31.5395 110.686 30.998 112.036 30.998C113.521 30.998 114.736 31.6748 115.276 32.8931C115.951 31.6748 117.3 30.998 118.92 30.998C121.215 30.998 122.97 32.2163 122.97 35.6003Z" fill="white"/>
<path d="M134.441 32.487C135.386 33.4345 135.791 34.7881 135.791 36.5478C135.791 38.1721 135.386 39.5257 134.306 40.4732C133.496 41.4207 132.281 41.9622 130.797 41.9622C129.312 41.9622 128.097 41.4207 127.287 40.3378L127.017 41.9622H124.992V27.208H127.287V32.7577C128.097 31.6749 129.312 30.9981 130.797 30.9981C132.281 30.9981 133.496 31.4041 134.441 32.487ZM132.686 39.1196C133.226 38.4428 133.496 37.6307 133.496 36.5478C133.496 35.4649 133.226 34.6528 132.686 33.976C132.146 33.2992 131.336 33.0284 130.392 33.0284C129.447 33.0284 128.772 33.2992 128.232 33.8406C127.692 34.5174 127.422 35.3296 127.422 36.4124C127.422 37.4953 127.692 38.3075 128.232 38.9843C128.772 39.661 129.582 39.9318 130.527 39.9318C131.336 40.0671 132.146 39.7964 132.686 39.1196Z" fill="white"/>
<path d="M137.684 41.8268V27.208H139.978V41.9622H137.684V41.8268Z" fill="white"/>
<path d="M143.35 29.6437C142.945 29.6437 142.675 29.5083 142.405 29.2376C142.135 28.9669 142 28.6962 142 28.2901C142 27.884 142.135 27.6133 142.405 27.3426C142.675 27.0719 142.945 26.9365 143.35 26.9365C143.755 26.9365 144.025 27.0719 144.295 27.3426C144.565 27.6133 144.7 27.884 144.7 28.2901C144.7 28.6962 144.565 28.9669 144.295 29.2376C144.025 29.5083 143.755 29.6437 143.35 29.6437ZM142.135 41.826V31.1327H144.43V41.826H142.135Z" fill="white"/>
<path d="M156.579 35.871V41.8268H154.284V36.0063C154.284 33.9759 153.474 32.8931 151.719 32.8931C149.964 32.8931 148.885 34.2467 148.885 36.4124V41.8268H146.59V31.1334H148.615L148.885 32.487C149.694 31.4041 150.909 30.998 152.259 30.998C154.689 30.998 156.579 32.2163 156.579 35.871Z" fill="white"/>
<path d="M167.108 31.1328H169.133V41.4201C169.133 44.398 167.378 46.1577 163.599 46.1577C162.114 46.1577 161.034 45.887 160.089 45.2102C159.144 44.5334 158.739 43.5858 158.604 42.503H160.899C161.169 43.7212 162.249 44.398 163.734 44.398C165.758 44.398 166.838 43.4505 166.838 41.4201V40.2019C166.028 41.4201 164.948 41.9615 163.329 41.9615C161.844 41.9615 160.629 41.4201 159.684 40.4726C158.739 39.5251 158.199 38.1715 158.199 36.5472C158.199 34.9229 158.739 33.5693 159.684 32.6218C160.629 31.6742 161.844 31.1328 163.329 31.1328C164.948 31.1328 166.028 31.6742 166.838 32.8925L167.108 31.1328ZM163.734 39.9312C164.678 39.9312 165.353 39.6604 166.028 38.9836C166.568 38.3068 166.838 37.4947 166.838 36.4118C166.838 35.3289 166.568 34.5168 166.028 33.84C165.488 33.1632 164.678 32.8925 163.734 32.8925C162.789 32.8925 162.114 33.1632 161.439 33.84C160.899 34.5168 160.629 35.3289 160.629 36.4118C160.629 37.4947 160.899 38.3068 161.439 38.9836C161.979 39.6604 162.789 39.9312 163.734 39.9312Z" fill="white"/>
<path d="M28.2133 34.3812C18.7644 34.3812 11.0703 26.6657 11.0703 17.1906C11.0703 7.71547 18.7644 0 28.2133 0C35.3674 0 41.8467 4.46685 44.2764 11.2348L39.417 12.9945C37.6622 8.25691 33.2077 5.14365 28.2133 5.14365C21.5991 5.14365 16.1997 10.558 16.1997 17.1906C16.1997 23.8232 21.5991 29.2376 28.2133 29.2376V34.3812Z" fill="white"/>
<path d="M27.2662 49.0004C20.1121 49.0004 13.6328 44.5335 11.2031 37.7655L16.0625 36.0059C17.8173 40.7434 22.2718 43.8567 27.2662 43.8567C33.8804 43.8567 39.2798 38.4423 39.2798 31.8097C39.2798 25.1772 33.8804 19.7628 27.2662 19.7628V14.6191C36.7151 14.6191 44.4092 22.3346 44.4092 31.8097C44.4092 41.2849 36.7151 49.0004 27.2662 49.0004Z" fill="white"/>
<path d="M4.58946 21.7933C7.12414 21.7933 9.17891 19.7328 9.17891 17.1911C9.17891 14.6493 7.12414 12.5889 4.58946 12.5889C2.05477 12.5889 0 14.6493 0 17.1911C0 19.7328 2.05477 21.7933 4.58946 21.7933Z" fill="white"/>
<path d="M50.8902 36.4114C53.4249 36.4114 55.4797 34.351 55.4797 31.8092C55.4797 29.2675 53.4249 27.207 50.8902 27.207C48.3556 27.207 46.3008 29.2675 46.3008 31.8092C46.3008 34.351 48.3556 36.4114 50.8902 36.4114Z" fill="white"/>
<path d="M67.8971 4.7373H67.4922V46.0218H67.8971V4.7373Z" fill="white"/>
</svg>
